#!OML:ASF H:\charlestonDancing\Project 1\Capture day 1\Session 1\femaleDancer.ASF
:FULLY-SPECIFIED
:DEGREES
512
root -1.73694 17.719 5.65799 901.373 -69.4077 -893.81
lowerback 21.9423 -2.56272 0.682016
upperback 5.905 -3.8395 -1.84752
thorax -5.95146 -2.08536 -1.33948
lowerneck 14.842 6.72665 7.82402
upperneck -25.6645 8.27045 -11.2637
head -9.65398 4.25828 -6.2639
rclavicle -3.97569e-015 2.3059e-014
rhumerus -40.5652 -19.9787 -54.2754
rradius 90.4089
rwrist -45.5641
rhand -5.30192 -31.0234
rfingers 7.12502
rthumb 20.5033 -59.9607
lclavicle -3.97569e-015 2.3059e-014
lhumerus -28.9599 -2.90946 73.7433
lradius 39.6025
lwrist -8.32337
lhand -26.5037 17.7455
lfingers 7.12502
lthumb 0.0593011 47.7252
rfemur -28.9046 15.7218 20.0931
rtibia 35.4437
rfoot -15.479 12.5157
rtoes -6.67678
lfemur -27.5251 5.13665 -19.8966
ltibia 39.2634
lfoot -16.9867 1.60669
ltoes -20.7039
513
root -1.72055 17.7417 5.65509 901.133 -69.976 -893.455
lowerback 21.6204 -2.64408 0.811823
upperback 5.89079 -3.89993 -1.7705
thorax -5.80541 -2.11129 -1.32867
lowerneck 15.1046 6.66906 7.92616
upperneck -25.2683 8.36201 -10.9402
head -9.56959 4.27705 -6.16512
rclavicle 6.36111e-015 3.18055e-015
rhumerus -40.813 -20.1298 -54.2497
rradius 90.2468
rwrist -45.3135
rhand -5.60839 -31.1601
rfingers 7.12502
rthumb 20.2088 -60.1289
lclavicle 6.36111e-015 3.18055e-015
lhumerus -27.5676 -5.56614 74.155
lradius 44.3543
lwrist -4.02651
lhand -28.326 16.5926
lfingers 7.12502
lthumb -1.70081 46.5656
rfemur -28.7088 15.0567 20.2389
rtibia 34.8417
rfoot -15.2857 12.4086
rtoes -7.55995
lfemur -27.489 4.95021 -19.8045
ltibia 38.6874
lfoot -16.4826 1.4098
ltoes -20.7196
514
root -1.713 17.7636 5.65004 900.709 -70.2707 -893.021
lowerback 21.3945 -2.63444 0.996369
upperback 5.85118 -3.83801 -1.75136
thorax -5.73928 -2.07901 -1.43835
lowerneck 15.4416 6.53867 8.05766
upperneck -25.0113 8.367 -10.5555
head -9.56057 4.23954 -6.05646
rclavicle 1.23246e-014 3.18055e-015
rhumerus -40.9339 -20.4764 -54.3323
rradius 89.8588
rwrist -45.0637
rhand -5.65167 -31.1731
rfingers 7.12502
rthumb 20.1672 -60.1463
lclavicle 1.23246e-014 3.18055e-015
lhumerus -26.1351 -7.74944 74.2399
lradius 48.8222
lwrist -0.392378
lhand -28.9292 15.4139
lfingers 7.12502
lthumb -2.28333 45.3815
rfemur -28.3762 14.6103 20.4528
rtibia 34.2687
rfoot -15.1246 12.4349
rtoes -8.14584
lfemur -27.2816 4.94964 -19.6609
ltibia 38.1405
lfoot -16.1283 1.29204
ltoes -21.008
515
root -1.71725 17.7861 5.64912 900.892 -70.4734 -893.37
lowerback 21.2542 -2.60745 1.08104
upperback 5.78873 -3.78531 -1.84857
thorax -5.74424 -2.05135 -1.60909
lowerneck 15.6323 6.47283 8.09282
upperneck -24.593 8.45205 -10.0892
head -9.4683 4.2423 -5.89224
rclavicle -4.33351e-014 3.49861e-014
rhumerus -41.5728 -20.5809 -54.1584
rradius 89.8724
rwrist -44.9919
rhand -5.56368 -31.1681
rfingers 7.12502
rthumb 20.2517 -60.1323
lclavicle -4.33351e-014 3.49861e-014
lhumerus -24.5764 -9.42377 74.1346
lradius 52.7786
lwrist 2.07307
lhand -28.36 14.827
lfingers 7.12502
lthumb -1.73357 44.7997
rfemur -27.8802 14.0957 20.4199
rtibia 33.7557
rfoot -15.0376 12.6061
rtoes -8.38784
lfemur -26.8666 4.92845 -19.8186
ltibia 37.6279
lfoot -15.9559 1.22492
ltoes -20.8601
516
root -1.72037 17.8036 5.65163 901.375 -70.6241 -894.031
lowerback 21.0398 -2.5832 1.03035
upperback 5.79501 -3.76997 -1.94872
thorax -5.62987 -2.04281 -1.70137
lowerneck 15.4874 6.56248 7.91814
upperneck -24.1328 8.69349 -9.51139
head -9.29984 4.3191 -5.64893
rclavicle 3.97569e-016 -4.6118e-014
rhumerus -41.8441 -20.6969 -54.1172
rradius 89.7644
rwrist -44.8603
rhand -5.56761 -31.2902
rfingers 7.12502
rthumb 20.248 -60.2549
lclavicle 3.97569e-016 -4.6118e-014
lhumerus -22.8108 -10.7242 73.8986
lradius 56.2064
lwrist 3.56931
lhand -27.9388 14.5569
lfingers 7.12502
lthumb -1.32678 44.5325
rfemur -27.4548 13.6076 20.2684
rtibia 33.3177
rfoot -15.0753 12.7423
rtoes -8.97196
lfemur -26.457 4.88978 -20.092
ltibia 37.1141
lfoot -15.7915 1.21762
ltoes -20.5384
517
root -1.72277 17.8176 5.65574 901.901 -70.5991 -894.702
lowerback 20.803 -2.5434 0.885693
upperback 5.83552 -3.75571 -2.03579
thorax -5.46041 -2.03556 -1.72766
lowerneck 15.0517 6.7184 7.7756
upperneck -23.6731 8.97102 -9.06013
head -9.06668 4.4202 -5.44295
rclavicle -4.13472e-014 3.18055e-015
rhumerus -41.7669 -20.7348 -54.2869
rradius 89.6343
rwrist -44.8763
rhand -5.84758 -31.5529
rfingers 7.12502
rthumb 19.9789 -60.5458
lclavicle -4.13472e-014 3.18055e-015
lhumerus -21.0627 -11.7739 73.576
lradius 59.1783
lwrist 4.71046
lhand -28.0692 14.4394
lfingers 7.12502
lthumb -1.4527 44.4142
rfemur -27.1331 13.3293 20.0891
rtibia 32.9573
rfoot -15.1158 12.8946
rtoes -9.65197
lfemur -26.0559 4.82352 -20.3416
ltibia 36.5963
lfoot -15.6747 1.39059
ltoes -20.3702
518
root -1.72546 17.8324 5.65799 902.417 -70.4384 -895.382
lowerback 20.621 -2.47075 0.674222
upperback 5.8343 -3.70676 -2.08051
thorax -5.35629 -2.01057 -1.67574
lowerneck 14.9194 6.82331 7.63746
upperneck -23.5324 9.14367 -8.78881
head -9.0013 4.4848 -5.32778
rclavicle 1.27222e-014 3.02153e-014
rhumerus -41.5878 -20.6344 -54.4967
rradius 89.5156
rwrist -44.8095
rhand -6.27295 -31.7969
rfingers 7.12502
rthumb 19.57 -60.8319
lclavicle 1.27222e-014 3.02153e-014
lhumerus -19.5031 -12.7466 73.3724
lradius 61.6788
lwrist 5.48037
lhand -28.4334 14.2867
lfingers 7.12502
lthumb -1.80448 44.2589
rfemur -26.8122 13.2443 19.8984
rtibia 32.6289
rfoot -15.0823 13.0086
rtoes -10.2373
lfemur -25.6385 4.74894 -20.5594
ltibia 36.1286
lfoot -15.6338 1.6381
ltoes -19.9811
